<?xml version="1.0" encoding="UTF-8"?>
<svg id="Layer_2" data-name="Layer 2" xmlns="http://www.w3.org/2000/svg" viewBox="0 0 1119.56 1109.1">
  <defs>
    <style>
      .cls-1 {
        fill: #1e394c;
      }

      .cls-1, .cls-2, .cls-3, .cls-4, .cls-5, .cls-6, .cls-7, .cls-8, .cls-9, .cls-10, .cls-11, .cls-12, .cls-13, .cls-14, .cls-15, .cls-16 {
        stroke-width: 0px;
      }

      .cls-2 {
        fill: #fefefe;
      }

      .cls-3 {
        fill: #fd5e9d;
      }

      .cls-4 {
        fill: #fe5e9d;
      }

      .cls-5 {
        fill: #21e6f9;
      }

      .cls-6 {
        fill: #1f6f82;
      }

      .cls-7 {
        fill: #fd5d9c;
      }

      .cls-8 {
        fill: #f6fcfd;
      }

      .cls-9 {
        fill: #22e7fa;
      }

      .cls-10 {
        fill: #f6fdfd;
      }

      .cls-11 {
        fill: #1e5164;
      }

      .cls-12 {
        fill: #1e3144;
      }

      .cls-13 {
        fill: #d2f9fd;
      }

      .cls-14 {
        fill: #1e3447;
      }

      .cls-15 {
        fill: #21e7fa;
      }

      .cls-16 {
        fill: #1e2e41;
      }
    </style>
  </defs>
  <g id="Layer_1-2" data-name="Layer 1">
    <path class="cls-16" d="m236.29,304.31l5.23.87,32.26,11.34,11.34,3.49,23.54,11.34-.87,5.23-3.49,6.1,14.82-4.36,4.36-1.74,6.98.87,13.08,2.62,14.82.87,4.36,20.05,1.74,8.72,2.62,8.72,6.98,20.93,5.23,17.44,11.34,33.13,6.1,17.44,3.49-.87,6.98-14.82,5.23-11.34.87-3.49v-12.21l5.23-1.74,18.31-5.23,13.08-5.23,3.49-4.36,2.62-4.36,13.08-6.98,10.46-1.74,11.34.87,6.1,2.62,5.23,3.49,6.1,6.98,3.49,9.59v9.59l-1.74,22.67-.87,2.62,8.72-2.62h6.1l9.59,2.62,10.46,1.74,1.74,2.62,6.1.87,13.95-3.49h6.98l-.87,14.82,9.59,5.23,8.72,7.85,1.74.87v-6.98l6.98-10.46,6.1-6.1,11.34-7.85,10.46-4.36,13.08-1.74v-2.62l-9.59-12.21-8.72-8.72-8.72-6.98-2.62-6.1-3.49-13.95-7.85-13.95v-3.49l7.85-8.72,7.85-9.59,10.46-10.46,14.82-11.34,17.44-10.46,11.34-5.23,6.1-2.62h9.59l26.16,3.49,6.98,2.62,6.98,13.08,3.49,10.46.87,4.36v20.05l3.49,9.59,10.46,7.85,12.21,12.21,13.08,5.23,9.59,6.1,9.59,7.85,6.98,5.23,6.98,6.1,12.21,8.72,8.72,4.36,13.08,6.1,4.36,4.36,6.98,6.1,7.85,8.72,6.1,2.62,13.08,1.74,8.72,1.74,1.74-4.36,5.23-7.85,8.72-8.72,4.36-3.49,10.46-3.49,12.21-8.72,12.21-6.98,13.08-4.36,13.08-1.74,9.59-4.36,18.31-3.49,9.59-2.62,12.21-1.74,1.74-4.36,6.1.87,13.08,6.1,8.72,2.62,5.23-1.74h11.34l13.08,3.49,13.95,6.98,13.08,8.72,9.59,7.85,5.23,6.98,1.74,3.49v17.44l-2.62,9.59-3.49,7.85-3.49,6.98-5.23,7.85-3.49,6.1-2.62,2.62,6.98,3.49,8.72,10.46,3.49,10.46.87,4.36v13.95l-2.62,13.08-3.49,8.72-6.98,13.08-7.85,8.72-9.59,12.21-10.46,10.46-12.21,8.72-16.57,7.85-8.72,6.1-8.72,3.49-14.82,5.23-15.69,9.59v1.74l5.23,3.49.87,1.74h-7.85l-46.21-6.1-35.75-6.98-8.72-5.23-12.21-9.59-4.36-4.36h-5.23l-14.82,6.98-17.44,6.1-19.18,5.23-4.36,2.62h-22.67l-13.08-2.62-2.62-.87h-6.1l-8.72.87-13.95-3.49-13.08-2.62-8.72-2.62-12.21-.87-6.98-.87v13.08l-1.74,13.08v20.93l-.87,17.44-.87,6.1v7.85l2.62,4.36,2.62,20.05.87,18.31,2.62,20.93v12.21l-8.72,8.72-6.98,12.21-6.1,9.59-20.93,3.49-23.54,6.1-11.34,2.62h-6.1l-9.59-20.05-6.98-10.46-2.62-3.49-4.36-25.29-9.59-20.05-4.36-13.95-2.62-11.34-2.62-17.44-1.74-27.03-4.36-4.36v-19.18l-9.59-3.49-13.08-4.36-10.46-4.36v-5.23l-4.36-4.36-.87-1.74-6.1-.87v-5.23l-6.98-3.49h-7.85l-8.72,1.74-9.59,6.98-6.98,2.62-6.98.87-5.23,6.98-11.34,20.05-5.23,7.85-2.62,1.74-.87-2.62v-34.88l-.87-1.74-8.72-2.62-14.82-.87-.87-.87v-13.95l-7.85-10.46v-1.74h-2.62l-.87,8.72-3.49,8.72-6.98,8.72-6.1,8.72-4.36,4.36-32.26,4.36-9.59,1.74h-27.9l-.87-4.36-2.62-27.03-3.49-25.29-6.1-32.26-.87-.87-1.74,8.72v5.23l2.62.87v5.23l-.87,2.62v11.34l-2.62,13.95-5.23,12.21-3.49,2.62.87,8.72-.87,10.46-1.74.87-11.34-2.62-7.85-.87h-12.21l-13.08,4.36h-10.46l-4.36-.87h-6.98l-.87,16.57-3.49,14.82-.87,1.74-.87,15.69-1.74,6.1-8.72,12.21-9.59,10.46-9.59,6.1-12.21,4.36-3.49,1.74-4.36,14.82-2.62,7.85-2.62,1.74-2.62-4.36-11.34-24.41-4.36-8.72-4.36-5.23-3.49-7.85-1.74-13.95-.87-6.1v-15.69l.87-13.08-6.1-16.57-7.85-24.41-6.98-25.29-6.1-12.21-2.62-2.62v-1.74h-2.62l.87,5.23v24.41l-3.49,13.95-4.36,8.72-9.59,8.72-12.21,6.98-8.72,3.49-12.21,2.62h-23.54l-8.72-3.49-6.98-6.1-5.23-8.72-2.62-7.85-2.62-13.95v-6.1l3.49-11.34,2.62-12.21v-26.16l-10.46-135.15-5.23-54.93-2.62-18.31,10.46-9.59,12.21-8.72,14.82-6.98,12.21-3.49,13.95-1.74h27.9l4.36,15.69,4.36,27.9,2.62,27.9.87,7.85,4.36-.87,11.34-6.98,12.21-6.1,13.95-4.36,3.49-.87h18.31l7.85,1.74,19.18,1.74-7.85-10.46-2.62-6.1-1.74-13.08v-6.98l5.23-3.49-3.49-1.74-.87-1.74,8.72-13.08,10.46-9.59,13.08-6.98-.87-10.46v-4.36Z"/>
    <path class="cls-7" d="m681.85,343.54h6.1l13.08,3.49,4.36,4.36.87,3.49v6.98l-3.49,8.72-4.36,6.1,1.74,3.49,6.98,3.49,2.62,6.1,2.62,8.72,12.21,8.72,9.59,8.72,4.36,6.1,26.16,13.08,8.72,6.98v-5.23l4.36-2.62h8.72l1.74.87-.87,3.49h-1.74l-1.74,5.23-1.74,4.36,9.59,6.1,11.34,8.72,2.62,2.62-.87,6.1v9.59l2.62,5.23,3.49.87,2.62-3.49.87-5.23-1.74-4.36-2.62-4.36v-1.74l5.23.87,8.72,6.1,3.49,2.62-.87,6.1,9.59,3.49,11.34,6.98,6.98,3.49-.87,3.49-1.74,3.49.87,6.1,1.74,1.74h2.62l.87-6.98,2.62-2.62,3.49-.87h8.72l11.34,6.98,5.23,6.1h2.62l3.49-9.59,3.49-10.46,5.23-6.98,1.74-5.23,6.1-5.23,10.46-5.23,14.82-10.46,13.95-6.98,13.08-3.49,13.08-2.62,6.98-2.62,13.08-.87,6.98-3.49,7.85-.87,5.23,1.74,11.34-.87,4.36,1.74,7.85.87h19.18l10.46,4.36,13.95,8.72,8.72,6.98,1.74,3.49-3.49,10.46-7.85,13.95-6.98,8.72-4.36,4.36-9.59,5.23-16.57,9.59-6.98,6.1-6.1,2.62-7.85,1.74-6.98,3.49-9.59,6.1-15.69,6.1-7.85,2.62h-6.1l-1.74-1.74h-5.23l-9.59,3.49-6.98.87-5.23-.87-10.46,2.62-3.49,1.74,1.74,7.85,7.85,16.57,10.46,14.82,9.59,10.46,4.36,2.62,9.59,2.62h6.1l3.49-1.74,14.82-1.74,19.18-6.98,5.23-6.98,9.59-6.1,4.36-.87,1.74-6.1,8.72-6.98,3.49-3.49,7.85-12.21,7.85-8.72,6.1-5.23,4.36-4.36h4.36l4.36,4.36,1.74,5.23v8.72l-2.62,8.72-8.72,13.95-7.85,12.21-7.85,8.72-7.85,6.98-6.1,4.36-7.85.87-6.98,6.1-10.46,6.1-5.23,3.49-18.31,6.1h-9.59l-3.49,2.62-20.93,6.98h-6.98l-5.23-3.49-5.23.87-2.62,1.74-7.85-.87-18.31-5.23-11.34-6.1-9.59-9.59-5.23-10.46-1.74-4.36-4.36,1.74-18.31,10.46-16.57,7.85-15.69,5.23-3.49.87h-10.46l-1.74-.87-.87-4.36-7.85.87-5.23,2.62-4.36,5.23-7.85-.87-8.72-4.36-5.23.87-3.49,1.74h-6.98l-4.36-4.36-3.49-.87-.87.87h-8.72l-9.59-4.36-.87-.87h-6.1l-4.36,1.74-7.85-.87-9.59-5.23-3.49-2.62h-6.98l-8.72,4.36-2.62,7.85-.87,36.62-.87.87-.87,10.46v23.54l-1.74,21.8-1.74,7.85,3.49,4.36,2.62,6.98,1.74,26.16,2.62,14.82v8.72l-8.72,13.95-6.1,5.23-11.34,3.49-13.95,3.49h-6.98l-5.23-7.85-5.23-8.72-4.36-21.8-3.49-9.59-7.85-14.82-4.36-16.57-3.49-23.54-1.74-25.29-2.62-7.85-2.62-23.54-3.49-17.44-1.74-5.23-5.23.87-3.49,4.36-6.98,5.23h-6.1l-9.59-6.98-2.62-2.62-2.62-7.85-.87-7.85-5.23-4.36-3.49-10.46-4.36-3.49h-8.72l-5.23,1.74-9.59,10.46-20.05,6.1-12.21,6.98-2.62.87h-9.59l-4.36-2.62-3.49-5.23h-7.85l-2.62-.87-.87-3.49,2.62-2.62.87-2.62-6.1.87-4.36-2.62-2.62-8.72-9.59-6.1-6.1-9.59-2.62-12.21v-8.72l.87-4.36-1.74-5.23-1.74-10.46-6.98,20.93-9.59,33.13-6.98,22.67-4.36,6.98-6.98,6.98-5.23,1.74-20.05,2.62-9.59.87-1.74-3.49-1.74-15.69-4.36-28.77-6.1-28.77-7.85-27.03-6.1-17.44-6.98-18.31-6.98-16.57-7.85-20.05-11.34-31.39-16.57-50.57-.87-3.49,9.59-6.98,12.21-6.98,7.85-3.49,6.98-.87,9.59,3.49,2.62,4.36,14.82,47.96,14.82,43.6,13.95,39.24,10.46,25.29h2.62l27.9-55.8,9.59-20.05,4.36-6.98,19.18-7.85,10.46-6.98,7.85-8.72,5.23-.87,6.1,2.62.87.87v9.59l-1.74,14.82-8.72,13.95-7.85,12.21-6.98,11.34-2.62,5.23v1.74l5.23-.87,4.36-4.36,4.36-3.49,13.95-4.36h6.1l8.72,2.62h6.1l6.98-3.49,6.1-.87,11.34,4.36,7.85,3.49,9.59,2.62,5.23,3.49,6.98,4.36,8.72,5.23,8.72,7.85,10.46,10.46,2.62,4.36v13.95l2.62,12.21,5.23,9.59.87,1.74v6.1l-1.74,2.62,5.23.87v-20.93l2.62-32.26,3.49-5.23,2.62-10.46.87-16.57,4.36-5.23,8.72-5.23,7.85-2.62,12.21-2.62,12.21-1.74,2.62-8.72,3.49-13.08-.87-5.23-10.46-11.34-7.85-9.59-15.69-15.69-4.36-13.95-1.74-2.62.87-4.36,13.95-13.08,9.59-7.85,13.08-7.85,14.82-6.98,3.49-.87Z"/>
    <path class="cls-5" d="m333.08,573.73l2.62,1.74,6.1,32.26,3.49,25.29,2.62,27.03v3.49h27.9l22.67-3.49,19.18-2.62,3.49-3.49,6.1-8.72,7.85-9.59,3.49-11.34.87-5.23h2.62l6.1,8.72,2.62,3.49v13.95l14.82.87,8.72,2.62,1.74,4.36v33.13l.87,1.74,3.49-4.36,11.34-20.05,6.1-9.59,2.62-2.62,10.46-1.74,8.72-5.23,6.1-4.36,6.98-.87h7.85l6.98,3.49.87,3.49-.87,2.62h6.1l2.62,3.49v1.74l3.49,1.74-.87,5.23,8.72,2.62,11.34,4.36,11.34,3.49,2.62,1.74v19.18l4.36,4.36,1.74,27.03,3.49,22.67,4.36,15.69,6.1,13.95,5.23,10.46,2.62,13.95,1.74,11.34,6.1,8.72,6.98,12.21,5.23,11.34v1.74l17.44-3.49,27.03-6.98,13.08-1.74h4.36l1.74-4.36,1.74-.87-2.62,7.85-6.98,9.59-5.23,6.98-9.59,14.82-2.62,2.62-8.72,1.74-15.69,2.62-26.16,6.98-3.49.87h-6.1l-2.62-2.62-7.85-16.57-9.59-14.82-2.62-7.85-2.62-14.82-2.62-8.72-4.36-9.59-1.74-5.23-2.62.87-11.34,16.57-29.65,44.47-12.21,17.44-10.46,14.82-6.98,9.59-6.98,8.72-10.46,13.95-9.59,11.34-12.21,13.08-12.21,11.34-5.23,4.36h-1.74v1.74l-6.98,5.23-11.34,10.46-12.21,14.82-6.98,9.59-7.85,11.34-10.46,14.82-8.72,11.34-9.59,10.46-11.34,7.85-7.85,3.49h-4.36l-5.23-4.36-4.36-8.72-.87-9.59,2.62-10.46,4.36-10.46,5.23-7.85,8.72-11.34,11.34-15.69,6.1-9.59,9.59-14.82,9.59-13.95,8.72-11.34,19.18-24.41,12.21-16.57,12.21-17.44,12.21-19.18,10.46-16.57,14.82-25.29,13.95-22.67,11.34-18.31,13.08-20.93,19.18-28.77,11.34-15.69,4.36-5.23v-3.49l-13.08-3.49-13.95-5.23h-2.62l-18.31,27.03-9.59,13.95-24.41,34.88-10.46,14.82-7.85,10.46-6.1,6.1-6.98,12.21-8.72,10.46-9.59,12.21-9.59,11.34-8.72,8.72-10.46,19.18-9.59,10.46-6.1,10.46-12.21,12.21-5.23,6.98-12.21,14.82-11.34,12.21-6.98,8.72-5.23,6.98h-1.74l-1.74,3.49-7.85,10.46-8.72,7.85-5.23,2.62-4.36-.87.87-4.36,6.98-6.1,3.49-6.1,3.49-8.72,7.85-13.95,11.34-19.18,7.85-9.59,13.95-13.95,6.98-13.95,5.23-13.08,4.36-5.23,4.36-2.62,10.46-20.05,5.23-6.98,6.98-4.36,6.98-13.95,1.74-4.36v-4.36l-3.49,3.49-13.95,22.67-5.23,6.1-2.62.87,1.74-7.85,8.72-16.57,8.72-18.31,8.72-11.34,11.34-14.82,8.72-13.08,11.34-22.67,9.59-20.93,5.23-9.59h-2.62l-1.74,4.36-5.23,7.85-3.49.87-.87-.87.87-39.24-2.62-1.74-5.23-.87-14.82-.87-2.62-1.74v-16.57l-.87-3.49h-4.36l-6.1,11.34-6.98,7.85-5.23,7.85-2.62,5.23-5.23,1.74-10.46,1.74-6.1,5.23-12.21,16.57-28.77,38.37-12.21,15.69-8.72,11.34-7.85,8.72-6.98,10.46-10.46,12.21-7.85,10.46-12.21,13.08-6.1,5.23-5.23,8.72-7.85,13.95-8.72,10.46-6.1,9.59-7.85,9.59-9.59,12.21-18.31,24.41-9.59,13.95-3.49,3.49-4.36-.87v-4.36l10.46-17.44,6.98-11.34,8.72-11.34,6.98-7.85,7.85-11.34,7.85-14.82,3.49-4.36,5.23-4.36,6.1-10.46,3.49-6.98,2.62-6.1,1.74-3.49,8.72-6.1,4.36-5.23,6.1-10.46-.87-6.98,3.49-6.1,7.85-9.59,11.34-13.95,11.34-16.57,21.8-34.88,12.21-19.18,3.49-4.36v-.87l-20.05-.87-.87-.87-2.62-24.41-.87-3.49-.87-13.08-7.85-1.74-2.62,8.72-5.23,6.1-.87,1.74v20.05h-8.72l-8.72-1.74h-4.36l-6.98,7.85-13.08,19.18-20.93,29.65-8.72,11.34-6.1,6.98-7.85,8.72-11.34,11.34-12.21,9.59-13.95,11.34-9.59,8.72-5.23,4.36-6.1,6.98-9.59,12.21-8.72,13.08-3.49,6.98-2.62,9.59-7.85,7.85-6.98,8.72-7.85,8.72-7.85,9.59-10.46,12.21-9.59,9.59-11.34,7.85-13.95,6.98-3.49.87h-6.98l-7.85-2.62-5.23-4.36-2.62-4.36v-11.34l5.23-14.82,6.98-12.21,8.72-13.08,13.95-20.05,6.1-8.72,10.46-14.82,6.98-9.59,12.21-16.57,15.69-19.18,9.59-10.46,6.1-6.98,7.85-8.72,1.74-2.62-.87-6.98-2.62-14.82-.87-8.72v-12.21l.87-3.49v-10.46l-13.95-42.72-3.49-14.82-3.49.87,4.36-4.36,4.36-6.1,4.36-13.08.87-5.23v-29.65h2.62l5.23,7.85,4.36,8.72,10.46,36.62,8.72,25.29,1.74,4.36-.87,13.08v15.69l1.74,16.57,3.49,9.59,8.72,13.08,7.85,17.44,6.1,13.08,2.62-1.74,5.23-20.05,2.62-3.49,10.46-3.49,10.46-5.23,7.85-6.98,7.85-9.59,5.23-7.85,1.74-6.1.87-15.69,3.49-11.34.87-5.23.87-16.57.87-.87h6.98l4.36.87h10.46l13.08-4.36h12.21l11.34,1.74,8.72,1.74.87-14.82-.87-4.36,4.36-4.36,4.36-10.46,2.62-13.95v-13.08l.87-.87v-5.23l-2.62-2.62.87-5.23.87-7.85Z"/>
    <path class="cls-4" d="m90.68,350.52l3.49.87,1.74,3.49,3.49,24.41,2.62,31.39.87,18.31v40.11l5.23-1.74,10.46-9.59,6.98-6.1,9.59-10.46,7.85-9.59,6.98-9.59,8.72-5.23,9.59-3.49,7.85-1.74h11.34l10.46,1.74,1.74.87-1.74,4.36-5.23,7.85-8.72,13.95-8.72,11.34-6.1,6.98v5.23l6.98,17.44,9.59,25.29,12.21,31.39,13.08,33.13,10.46,26.16,4.36,15.69,5.23,34.01.87,8.72v13.95l-3.49,15.69-1.74,11.34-2.62,8.72-5.23,6.98-7.85,7.85-8.72,3.49-4.36-.87-7.85-5.23v-4.36l3.49-3.49-.87-2.62-5.23-3.49v-21.8l.87-6.98v-7.85l-6.1-15.69-10.46-34.01-6.1-23.54-10.46-18.31-12.21-25.29-11.34-27.03-5.23-7.85-2.62-2.62h-5.23l-7.85,5.23-2.62.87-1.74,3.49-2.62,4.36v9.59l4.36,23.54,2.62,26.16.87,9.59v20.93l-2.62,8.72-4.36,5.23-9.59,6.1-8.72,3.49h-18.31l-6.1-2.62-3.49-6.98-.87-3.49v-8.72l4.36-16.57,1.74-13.08v-17.44l-5.23-66.27-5.23-70.63-5.23-56.68-.87-11.34,5.23-4.36,13.08-6.1,11.34-3.49,13.95-1.74Z"/>
    <path class="cls-15" d="m746.38,0h4.36l-3.49,6.1-5.23,8.72-7.85,16.57-10.46,19.18-9.59,19.18-7.85,11.34-7.85,7.85-7.85,9.59-5.23,8.72-7.85,17.44-4.36,5.23-4.36,2.62-11.34,20.93-5.23,8.72-4.36,2.62-5.23,3.49-5.23,8.72-8.72,21.8-12.21,15.69-8.72,11.34-7.85,11.34-10.46,18.31-10.46,19.18-12.21,20.93-7.85,10.46-12.21,16.57-8.72,11.34-12.21,16.57-20.93,29.65-6.98,9.59-3.49,6.98-14.82-.87-10.46,1.74-13.08,6.98-4.36,6.98-5.23,3.49-14.82,5.23-17.44,4.36v12.21l-3.49,9.59-10.46,20.93-3.49.87-2.62-6.1-4.36-12.21.87-2.62,3.49-1.74,8.72-11.34,13.95-19.18,9.59-12.21,11.34-15.69,17.44-22.67,18.31-24.41,12.21-16.57,10.46-13.95,12.21-16.57,7.85-10.46,12.21-16.57,12.21-15.69,10.46-13.95,9.59-12.21,11.34-13.95,7.85-8.72,3.49-4.36,6.98-11.34,9.59-11.34,6.98-8.72,9.59-10.46,6.1-6.98,6.98-6.98,10.46-15.69,10.46-14.82,6.98-10.46,8.72-9.59,7.85-12.21,11.34-15.69,8.72-11.34,22.67-31.39,6.98-7.85,16.57-7.85,6.1-4.36Z"/>
    <path class="cls-15" d="m809.16,99.4h9.59l3.49,3.49v6.98l-5.23,13.08-6.1,11.34-10.46,14.82-8.72,12.21-9.59,13.08-6.98,9.59-11.34,15.69-13.95,18.31-12.21,16.57-7.85,9.59-10.46,12.21-6.98,7.85-7.85,9.59-9.59,11.34-9.59,12.21-8.72,11.34-6.98,9.59-1.74,4.36-4.36,3.49-13.95,6.98-13.08,8.72-13.95,11.34-9.59,9.59-7.85,9.59-6.1,6.98,1.74,3.49,6.98,13.08,4.36,17.44.87,2.62,3.49,1.74,13.08,12.21,10.46,12.21,1.74,3.49-1.74,1.74-13.08,1.74-10.46,4.36-12.21,8.72-6.1,6.98-5.23,7.85v7.85l-4.36-2.62-9.59-7.85-7.85-4.36.87-13.95h-6.1l-13.95,3.49-6.1-.87-1.74-2.62-13.95-2.62-6.1-1.74,2.62-1.74,5.23-4.36,20.93-29.65,8.72-11.34,8.72-12.21,11.34-15.69,12.21-17.44,13.95-20.05,13.95-20.93,9.59-13.08,8.72-12.21,10.46-13.95,11.34-13.95,12.21-13.08,26.16-26.16,9.59-12.21,6.98-8.72,6.98-9.59,28.77-38.37,17.44-21.8,7.85-9.59,10.46-11.34,6.98-6.98,9.59-6.1,4.36-1.74Z"/>
    <path class="cls-15" d="m874.55,205.78h6.1l6.1,5.23,6.98,12.21,3.49,10.46.87,13.08-2.62,13.95-5.23,13.08-8.72,13.08-6.98,8.72-8.72,6.1-9.59,4.36-6.1,1.74h-6.98l-5.23-2.62-4.36-1.74-6.98,6.1-14.82,14.82-6.1,6.98-6.1,6.1-6.1,6.98-7.85,9.59-8.72,10.46-6.98,8.72-10.46,13.95-6.1,9.59-.87,4.36-6.1-5.23-8.72-7.85-6.1-4.36-3.49-9.59v-20.05l-3.49-12.21-6.98-13.95-.87-2.62h5.23l10.46-13.95,9.59-11.34,7.85-8.72,6.1-6.98,6.98-6.98,6.98-6.1,13.08-10.46,20.93-13.08,13.95-10.46,8.72-7.85,11.34-8.72,9.59-6.1,9.59-4.36,17.44-4.36Z"/>
    <path class="cls-15" d="m1110.84,530.14l2.62,2.62,3.49,8.72.87,5.23v14.82l-3.49,13.08-6.98,13.95-5.23,6.98-5.23,7.85-9.59,17.44-9.59,11.34-11.34,14.82-13.95,13.95-11.34,7.85-22.67,12.21-6.98,4.36-17.44,6.1-15.69,8.72.87,4.36,1.74,1.74v3.49l-14.82-.87-47.96-6.98-25.29-5.23-10.46-5.23-9.59-7.85-8.72-6.98-5.23,1.74-20.05,8.72-16.57,5.23-9.59,2.62-5.23,2.62-4.36.87h-13.08l-14.82-1.74-7.85-1.74h-16.57l-26.16-6.1-5.23-1.74v10.46l-.87,16.57-.87,13.08,2.62,5.23,1.74,10.46,1.74,27.03,1.74,13.08v20.05l-1.74-2.62v-9.59l-2.62-20.93-.87-18.31-2.62-20.05-2.62-4.36v-7.85l.87-6.1.87-21.8v-16.57l1.74-13.08v-13.08l4.36-.87,3.49.87,12.21.87,13.08,3.49,13.95,3.49,8.72,1.74,14.82-.87,9.59,2.62,6.1.87h22.67l6.98-3.49,22.67-6.1,19.18-7.85,6.98-3.49h5.23l6.1,6.1,10.46,7.85,8.72,5.23,35.75,6.98,32.26,4.36,13.95,1.74h6.98l-6.1-4.36.87-2.62,15.69-9.59,14.82-5.23,10.46-4.36,4.36-3.49,13.95-6.98,7.85-4.36,11.34-8.72,9.59-9.59,9.59-12.21,7.85-9.59,5.23-10.46,3.49-8.72,2.62-13.08v-13.95l-3.49-14.82Z"/>
    <path class="cls-16" d="m705.4,469.1h10.46l8.72,3.49,16.57,9.59,8.72,9.59,4.36,4.36,8.72,6.1,18.31,9.59,6.98,3.49,4.36,4.36,6.1,4.36,4.36,5.23,8.72,5.23,7.85,3.49,4.36,4.36,4.36,6.98,4.36,4.36,8.72,6.98,6.1,6.98,8.72,16.57v5.23l-5.23,4.36-8.72,4.36-34.01.87-6.1-3.49-10.46-2.62h-6.98l-3.49.87-17.44-6.1-21.8-8.72-18.31-7.85-8.72-3.49-8.72-9.59v-1.74l-3.49-1.74-2.62-4.36-2.62-8.72v-4.36l4.36-8.72-.87-6.1-3.49-3.49-5.23-2.62,1.74-3.49,2.62-4.36-1.74-5.23-4.36-5.23.87-4.36,3.49-2.62,7.85,1.74v-12.21l-6.1-1.74-.87-2.62,1.74-2.62h1.74l1.74-3.49,4.36-.87Z"/>
    <path class="cls-15" d="m23.54,373.19h.87l2.62,20.93,5.23,59.29,8.72,114.22v26.16l-2.62,12.21-3.49,11.34v6.1l3.49,17.44,5.23,10.46,6.1,6.98,6.98,3.49,3.49.87h23.54l14.82-3.49,13.95-6.98,4.36-1.74-2.62,4.36-2.62,10.46-6.1,11.34-9.59,8.72-11.34,6.98-14.82,6.1-7.85,1.74h-22.67l-8.72-2.62-7.85-6.1-5.23-8.72-4.36-10.46-1.74-6.98v-13.08l4.36-15.69.87-7.85v-24.41l-10.46-135.15L0,404.58v-11.34l12.21-9.59,10.46-8.72.87-1.74Z"/>
    <path class="cls-7" d="m263.32,482.18h23.54l9.59.87,2.62,1.74,3.49,18.31v20.05l2.62,7.85,3.49,19.18v6.1l-2.62,3.49.87,6.1,2.62,3.49v5.23l-5.23,8.72-.87,6.1,6.98,4.36,1.74,1.74v7.85l-3.49,13.95-3.49,6.1-6.98,6.1-21.8,4.36h-6.98l-4.36-2.62-3.49-6.98-3.49-13.95-1.74-22.67-.87-7.85.87-2.62v-11.34l-4.36-4.36-1.74-5.23,1.74-4.36-.87-7.85-5.23-20.93-4.36-11.34-1.74-2.62.87-6.1.87-6.98.87-6.1,5.23-3.49,10.46-3.49,5.23-.87Z"/>
    <path class="cls-15" d="m983.54,225.83l4.36.87-.87,8.72-7.85,19.18-4.36,8.72-7.85,8.72-14.82,13.95-6.1,7.85-8.72,20.93-9.59,8.72-6.98,11.34-7.85,11.34-6.1,5.23-7.85,5.23-6.98,9.59-9.59,15.69-20.93,31.39-6.1,9.59-10.46,18.31-6.1,10.46v5.23l-3.49-1.74v-1.74l-4.36-.87-19.18-9.59-15.69-12.21-2.62-3.49,6.1-2.62,7.85-8.72,8.72-9.59,6.1-6.98,10.46-10.46,9.59-6.1,3.49-3.49v-6.1l12.21-12.21,6.1-6.98,20.05-20.05,6.98-6.1,5.23-6.98,8.72-13.95,12.21-12.21,6.1-6.98,6.1-6.1,5.23-6.98,6.98-8.72,12.21-13.08,16.57-16.57,6.98-6.1,6.1-4.36Z"/>
    <path class="cls-15" d="m274.66,410.68h2.62l6.98,19.18,8.72,26.16v3.49h-36.62l-18.31,6.1-14.82,7.85-4.36,1.74v16.57l.87,3.49-1.74,4.36-.87,12.21,2.62,7.85,5.23,11.34,4.36,14.82v6.98l-2.62-2.62-7.85-18.31-10.46-27.03-11.34-30.52v-4.36h-1.74l-.87-4.36,8.72-11.34,22.67-38.37,1.74-2.62,3.49,1.74,4.36,6.98v1.74l9.59-.87,18.31-5.23,8.72-4.36,2.62-2.62Z"/>
    <path class="cls-16" d="m496.13,510.95l6.98.87,8.72,3.49,13.08,8.72,3.49,2.62,6.1,15.69-.87,7.85-3.49,14.82-2.62,4.36-1.74,8.72-6.98,5.23-5.23,3.49-6.1,5.23-4.36-.87-6.98-5.23-1.74-6.98-6.98-8.72-6.1-11.34-6.1-5.23-.87-3.49,6.98-5.23.87-3.49.87-13.95,2.62-7.85,7.85-7.85,2.62-.87Z"/>
    <path class="cls-15" d="m723.71,502.23l4.36.87,9.59,10.46,10.46,7.85,16.57,8.72,13.08,7.85,6.98,5.23v2.62l8.72,5.23,9.59,6.1,6.98,6.1,6.1,6.98.87,3.49-7.85-.87-12.21-2.62-17.44-1.74-19.18-6.98-16.57-6.98-14.82-7.85-6.98-6.1.87-3.49,2.62-6.1-1.74-12.21-3.49-9.59,1.74-5.23,1.74-1.74Z"/>
    <path class="cls-16" d="m994.88,476.08h15.69l9.59,1.74,8.72,4.36.87,3.49-6.98,12.21-6.98,4.36-17.44,6.98-19.18,4.36-9.59-1.74-5.23-1.74-13.08-.87-6.1-5.23.87-4.36,11.34-12.21,6.98-5.23,5.23-1.74,11.34-.87,7.85-2.62,6.1-.87Z"/>
    <path class="cls-3" d="m258.96,337.44l7.85.87,10.46,4.36,4.36,4.36v6.1l-2.62,5.23-6.1,5.23-1.74,3.49-.87,13.95-6.1,7.85-7.85,6.98-1.74.87h-7.85l-7.85-13.95-4.36-6.98-6.98-7.85-2.62-3.49.87-3.49,5.23-9.59,6.98-6.1,7.85-4.36,13.08-3.49Z"/>
    <path class="cls-10" d="m251.12,448.17h4.36l1.74,3.49v6.1l-.87,1.74-18.31,6.1-14.82,7.85-4.36,1.74v16.57l.87,3.49-1.74,4.36-.87,12.21,2.62,7.85,5.23,11.34,4.36,14.82v6.98l-2.62-2.62-7.85-18.31-10.46-27.03-9.59-26.16-1.74-12.21,5.23-7.85,3.49-6.1,4.36.87,3.49,6.1,5.23.87,13.08-3.49,13.95-5.23,5.23-3.49Z"/>
    <path class="cls-8" d="m582.45,433.35h2.62l.87,1.74,1.74,11.34,6.1,7.85,4.36,4.36,2.62,3.49-.87,4.36-6.98,10.46v7.85l-4.36-2.62-9.59-7.85-7.85-4.36.87-13.95-3.49-1.74.87-4.36,6.98-7.85,6.1-8.72Z"/>
    <path class="cls-15" d="m1033.24,552.81h5.23v2.62l-3.49,2.62h-1.74l-1.74,3.49-4.36,4.36-7.85,6.1-6.98,6.1-6.98,3.49-4.36,1.74-15.69,2.62-6.1-.87-7.85-6.98-2.62-1.74.87-2.62,21.8-2.62,28.77-9.59,11.34-7.85,1.74-.87Z"/>
    <path class="cls-15" d="m203.16,356.62h.87l2.62,19.18,4.36,8.72,5.23,6.1v1.74h-11.34l-15.69-2.62-14.82-.87v-.87h8.72v-5.23l5.23-7.85,10.46-11.34,3.49-3.49.87-3.49Z"/>
    <path class="cls-15" d="m318.26,947.79l2.62.87-.87,6.1-6.1,13.95-7.85,8.72-6.98,4.36-6.98,7.85-7.85,12.21-3.49,4.36-5.23,1.74.87-5.23,11.34-16.57,6.1-6.98,6.1-7.85,8.72-11.34,6.1-8.72h1.74l1.74-3.49Z"/>
    <path class="cls-15" d="m217.98,475.2l.87,2.62v13.95l.87,3.49-1.74,4.36-.87,12.21,2.62,7.85,5.23,11.34,4.36,14.82v6.98l-2.62-2.62-7.85-18.31-10.46-27.03-.87-5.23.87,1.74,7.85-2.62.87-5.23v-17.44l.87-.87Z"/>
    <path class="cls-15" d="m222.34,1081.2l3.49.87-.87,4.36-6.1,6.1-17.44,13.95-5.23,2.62-.87-.87v-4.36l10.46-9.59,7.85-6.1,8.72-6.98Z"/>
    <path class="cls-13" d="m777.77,434.22h8.72l1.74.87-.87,3.49h-1.74l-1.74,5.23-2.62,4.36h-6.1l-2.62-2.62.87-8.72,4.36-2.62Z"/>
    <path class="cls-15" d="m1116.95,458.64l1.74,1.74.87,9.59-2.62,12.21-5.23,12.21-7.85,13.08-4.36,5.23v-2.62l5.23-9.59,2.62-3.49,6.1-13.95,1.74-7.85.87-15.69.87-.87Z"/>
    <path class="cls-15" d="m265.94,1020.16h1.74l-.87,5.23-6.1,9.59-7.85,7.85-3.49.87v-4.36l6.98-7.85,6.98-8.72,2.62-2.62Z"/>
    <path class="cls-9" d="m889.37,481.31h7.85l7.85,2.62.87,1.74-2.62,4.36h-5.23l-9.59-5.23-.87-2.62,1.74-.87Z"/>
    <path class="cls-14" d="m463.87,558.04h3.49l-.87,5.23-4.36,6.98h-4.36l.87-4.36,2.62-5.23,2.62-2.62Z"/>
    <path class="cls-2" d="m476.08,692.32l.87,2.62-6.1,9.59h-1.74l-1.74,4.36h-2.62l1.74-4.36,6.1-9.59,3.49-2.62Z"/>
    <path class="cls-16" d="m448.17,542.34l4.36.87v6.98l-4.36-.87-3.49-3.49v-2.62l3.49-.87Z"/>
    <path class="cls-14" d="m687.08,657.44l3.49.87,2.62,4.36v3.49l-3.49-.87-4.36-3.49v-3.49l1.74-.87Z"/>
    <path class="cls-11" d="m495.26,594.66l5.23.87,1.74,4.36-1.74,3.49-3.49-.87-2.62-6.98.87-.87Z"/>
    <path class="cls-12" d="m265.07,578.96l8.72,1.74,2.62.87v1.74l-1.74.87h-6.98l-3.49-1.74.87-3.49Z"/>
    <path class="cls-6" d="m570.25,578.09h6.1l.87,2.62-3.49,3.49-5.23-.87.87-4.36.87-.87Z"/>
    <path class="cls-15" d="m506.59,543.22l3.49,1.74v5.23l-2.62,2.62-3.49-.87,1.74-7.85.87-.87Z"/>
    <path class="cls-16" d="m459.51,582.45h8.72l1.74,3.49-.87.87h-6.98l-2.62-2.62v-1.74Z"/>
    <path class="cls-1" d="m281.63,591.17l5.23,1.74,4.36,1.74-.87,2.62h-6.1l-3.49-2.62.87-3.49Z"/>
    <path class="cls-15" d="m894.6,459.51l1.74.87-6.98,6.98-6.98,11.34h-6.1v-.87h5.23l1.74-6.1,10.46-11.34.87-.87Z"/>
    <path class="cls-15" d="m698.42,536.24h4.36l.87,4.36-2.62,1.74-3.49-.87v-4.36l.87-.87Z"/>
    <path class="cls-15" d="m784.74,438.58v2.62l-3.49,6.98-4.36-.87v-1.74l4.36-1.74,1.74-3.49,1.74-1.74Z"/>
    <path class="cls-16" d="m450.79,584.2l4.36.87-.87,4.36-4.36-.87v-3.49l.87-.87Z"/>
    <path class="cls-15" d="m596.4,469.1v2.62l-3.49,5.23v7.85l-3.49-1.74,1.74-.87-.87-4.36,5.23-7.85.87-.87Z"/>
  </g>
</svg>